<svg width="438" height="161" viewBox="0 0 438 161" fill="none" xmlns="http://www.w3.org/2000/svg">
<g clip-path="url(#clip0_1149_42)">
<mask id="path-1-outside-1_1149_42" maskUnits="userSpaceOnUse" x="13" y="8" width="374" height="96" fill="black">
<rect fill="white" x="13" y="8" width="374" height="96"/>
<path d="M57.6 65.9H33.1L19.8 52.6V28L33.1 14.6H69.8L83.1 28V44.4H60.2V36.1L57.6 33.4H45.4L42.7 36.1V44.5L45.4 47.1H69.8L83.1 60.5V84.7L69.8 98H33.1L19.8 84.7V68.7H42.7V76.5L45.4 79.2H57.6L60.2 76.6V68.6L57.6 65.9ZM116.645 79.2H131.245V75.9H150.045V98H88.7453V79.2H93.7453V33.4H88.7453V14.6H150.045V36.7H131.245V33.4H116.645V47H120.045V43.7H138.745V69H120.045V65.7H116.645V79.2ZM183.54 33.4V79.2H198.54V74.2H217.24V98H155.64V79.2H160.64V33.4H155.64V14.6H188.54V33.4H183.54ZM285.558 14.6V33.4H281.358L299.658 79.2H304.658V98H272.658V79.2H275.358L274.158 75.5H252.058L250.758 79.2H253.458V98H221.558V79.2H226.558L244.858 33.4H241.258V14.6H285.558ZM257.758 59.5H268.358L263.058 46.3L257.758 59.5ZM353.063 79.2V65.4H336.763V79.2H341.763V98H308.862V79.2H313.863V33.4H308.862V14.6H341.763V33.4H336.763V44.8H353.063V33.4H348.063V14.6H380.963V33.4H375.963V79.2H380.963V98H348.063V79.2H353.063Z"/>
</mask>
<path d="M57.6 65.9L61.9219 61.7382L60.1519 59.9H57.6V65.9ZM33.1 65.9L28.8574 70.1426L30.6147 71.9H33.1V65.9ZM19.8 52.6H13.8V55.0853L15.5574 56.8426L19.8 52.6ZM19.8 28L15.5415 23.7733L13.8 25.5279V28H19.8ZM33.1 14.6V8.59999H30.6015L28.8415 10.3733L33.1 14.6ZM69.8 14.6L74.0585 10.3733L72.2985 8.59999H69.8V14.6ZM83.1 28H89.1V25.5279L87.3585 23.7733L83.1 28ZM83.1 44.4V50.4H89.1V44.4H83.1ZM60.2 44.4H54.2V50.4H60.2V44.4ZM60.2 36.1H66.2V33.6808L64.5219 31.9381L60.2 36.1ZM57.6 33.4L61.9219 29.2381L60.1519 27.4H57.6V33.4ZM45.4 33.4V27.4H42.9147L41.1574 29.1574L45.4 33.4ZM42.7 36.1L38.4574 31.8574L36.7 33.6147V36.1H42.7ZM42.7 44.5H36.7V47.0518L38.5381 48.8219L42.7 44.5ZM45.4 47.1L41.2381 51.4219L42.9808 53.1H45.4V47.1ZM69.8 47.1L74.0585 42.8733L72.2985 41.1H69.8V47.1ZM83.1 60.5H89.1V58.0279L87.3585 56.2733L83.1 60.5ZM83.1 84.7L87.3426 88.9426L89.1 87.1853V84.7H83.1ZM69.8 98V104H72.2853L74.0426 102.243L69.8 98ZM33.1 98L28.8574 102.243L30.6147 104H33.1V98ZM19.8 84.7H13.8V87.1853L15.5574 88.9426L19.8 84.7ZM19.8 68.7V62.7H13.8V68.7H19.8ZM42.7 68.7H48.7V62.7H42.7V68.7ZM42.7 76.5H36.7V78.9853L38.4574 80.7426L42.7 76.5ZM45.4 79.2L41.1574 83.4426L42.9147 85.2H45.4V79.2ZM57.6 79.2V85.2H60.0853L61.8426 83.4426L57.6 79.2ZM60.2 76.6L64.4426 80.8426L66.2 79.0853V76.6H60.2ZM60.2 68.6H66.2V66.1808L64.5219 64.4382L60.2 68.6ZM57.6 59.9H33.1V71.9H57.6V59.9ZM37.3426 61.6574L24.0426 48.3574L15.5574 56.8426L28.8574 70.1426L37.3426 61.6574ZM25.8 52.6V28H13.8V52.6H25.8ZM24.0585 32.2267L37.3585 18.8267L28.8415 10.3733L15.5415 23.7733L24.0585 32.2267ZM33.1 20.6H69.8V8.59999H33.1V20.6ZM65.5415 18.8267L78.8415 32.2267L87.3585 23.7733L74.0585 10.3733L65.5415 18.8267ZM77.1 28V44.4H89.1V28H77.1ZM83.1 38.4H60.2V50.4H83.1V38.4ZM66.2 44.4V36.1H54.2V44.4H66.2ZM64.5219 31.9381L61.9219 29.2381L53.2781 37.5618L55.8781 40.2618L64.5219 31.9381ZM57.6 27.4H45.4V39.4H57.6V27.4ZM41.1574 29.1574L38.4574 31.8574L46.9426 40.3426L49.6426 37.6426L41.1574 29.1574ZM36.7 36.1V44.5H48.7V36.1H36.7ZM38.5381 48.8219L41.2381 51.4219L49.5619 42.7781L46.8619 40.1781L38.5381 48.8219ZM45.4 53.1H69.8V41.1H45.4V53.1ZM65.5415 51.3267L78.8415 64.7267L87.3585 56.2733L74.0585 42.8733L65.5415 51.3267ZM77.1 60.5V84.7H89.1V60.5H77.1ZM78.8574 80.4574L65.5574 93.7574L74.0426 102.243L87.3426 88.9426L78.8574 80.4574ZM69.8 92H33.1V104H69.8V92ZM37.3426 93.7574L24.0426 80.4574L15.5574 88.9426L28.8574 102.243L37.3426 93.7574ZM25.8 84.7V68.7H13.8V84.7H25.8ZM19.8 74.7H42.7V62.7H19.8V74.7ZM36.7 68.7V76.5H48.7V68.7H36.7ZM38.4574 80.7426L41.1574 83.4426L49.6426 74.9574L46.9426 72.2574L38.4574 80.7426ZM45.4 85.2H57.6V73.2H45.4V85.2ZM61.8426 83.4426L64.4426 80.8426L55.9574 72.3574L53.3574 74.9574L61.8426 83.4426ZM66.2 76.6V68.6H54.2V76.6H66.2ZM64.5219 64.4382L61.9219 61.7382L53.2781 70.0618L55.8781 72.7618L64.5219 64.4382ZM116.645 79.2H110.645V85.2H116.645V79.2ZM131.245 79.2V85.2H137.245V79.2H131.245ZM131.245 75.9V69.9H125.245V75.9H131.245ZM150.045 75.9H156.045V69.9H150.045V75.9ZM150.045 98V104H156.045V98H150.045ZM88.7453 98H82.7453V104H88.7453V98ZM88.7453 79.2V73.2H82.7453V79.2H88.7453ZM93.7453 79.2V85.2H99.7453V79.2H93.7453ZM93.7453 33.4H99.7453V27.4H93.7453V33.4ZM88.7453 33.4H82.7453V39.4H88.7453V33.4ZM88.7453 14.6V8.59999H82.7453V14.6H88.7453ZM150.045 14.6H156.045V8.59999H150.045V14.6ZM150.045 36.7V42.7H156.045V36.7H150.045ZM131.245 36.7H125.245V42.7H131.245V36.7ZM131.245 33.4H137.245V27.4H131.245V33.4ZM116.645 33.4V27.4H110.645V33.4H116.645ZM116.645 47H110.645V53H116.645V47ZM120.045 47V53H126.045V47H120.045ZM120.045 43.7V37.7H114.045V43.7H120.045ZM138.745 43.7H144.745V37.7H138.745V43.7ZM138.745 69V75H144.745V69H138.745ZM120.045 69H114.045V75H120.045V69ZM120.045 65.7H126.045V59.7H120.045V65.7ZM116.645 65.7V59.7H110.645V65.7H116.645ZM116.645 85.2H131.245V73.2H116.645V85.2ZM137.245 79.2V75.9H125.245V79.2H137.245ZM131.245 81.9H150.045V69.9H131.245V81.9ZM144.045 75.9V98H156.045V75.9H144.045ZM150.045 92H88.7453V104H150.045V92ZM94.7453 98V79.2H82.7453V98H94.7453ZM88.7453 85.2H93.7453V73.2H88.7453V85.2ZM99.7453 79.2V33.4H87.7453V79.2H99.7453ZM93.7453 27.4H88.7453V39.4H93.7453V27.4ZM94.7453 33.4V14.6H82.7453V33.4H94.7453ZM88.7453 20.6H150.045V8.59999H88.7453V20.6ZM144.045 14.6V36.7H156.045V14.6H144.045ZM150.045 30.7H131.245V42.7H150.045V30.7ZM137.245 36.7V33.4H125.245V36.7H137.245ZM131.245 27.4H116.645V39.4H131.245V27.4ZM110.645 33.4V47H122.645V33.4H110.645ZM116.645 53H120.045V41H116.645V53ZM126.045 47V43.7H114.045V47H126.045ZM120.045 49.7H138.745V37.7H120.045V49.7ZM132.745 43.7V69H144.745V43.7H132.745ZM138.745 63H120.045V75H138.745V63ZM126.045 69V65.7H114.045V69H126.045ZM120.045 59.7H116.645V71.7H120.045V59.7ZM110.645 65.7V79.2H122.645V65.7H110.645ZM183.54 33.4V27.4H177.54V33.4H183.54ZM183.54 79.2H177.54V85.2H183.54V79.2ZM198.54 79.2V85.2H204.54V79.2H198.54ZM198.54 74.2V68.2H192.54V74.2H198.54ZM217.24 74.2H223.24V68.2H217.24V74.2ZM217.24 98V104H223.24V98H217.24ZM155.64 98H149.64V104H155.64V98ZM155.64 79.2V73.2H149.64V79.2H155.64ZM160.64 79.2V85.2H166.64V79.2H160.64ZM160.64 33.4H166.64V27.4H160.64V33.4ZM155.64 33.4H149.64V39.4H155.64V33.4ZM155.64 14.6V8.59999H149.64V14.6H155.64ZM188.54 14.6H194.54V8.59999H188.54V14.6ZM188.54 33.4V39.4H194.54V33.4H188.54ZM177.54 33.4V79.2H189.54V33.4H177.54ZM183.54 85.2H198.54V73.2H183.54V85.2ZM204.54 79.2V74.2H192.54V79.2H204.54ZM198.54 80.2H217.24V68.2H198.54V80.2ZM211.24 74.2V98H223.24V74.2H211.24ZM217.24 92H155.64V104H217.24V92ZM161.64 98V79.2H149.64V98H161.64ZM155.64 85.2H160.64V73.2H155.64V85.2ZM166.64 79.2V33.4H154.64V79.2H166.64ZM160.64 27.4H155.64V39.4H160.64V27.4ZM161.64 33.4V14.6H149.64V33.4H161.64ZM155.64 20.6H188.54V8.59999H155.64V20.6ZM182.54 14.6V33.4H194.54V14.6H182.54ZM188.54 27.4H183.54V39.4H188.54V27.4ZM285.558 14.6H291.558V8.59999H285.558V14.6ZM285.558 33.4V39.4H291.558V33.4H285.558ZM281.358 33.4V27.4H272.499L275.786 35.6262L281.358 33.4ZM299.658 79.2L294.086 81.4262L295.594 85.2H299.658V79.2ZM304.658 79.2H310.658V73.2H304.658V79.2ZM304.658 98V104H310.658V98H304.658ZM272.658 98H266.658V104H272.658V98ZM272.658 79.2V73.2H266.658V79.2H272.658ZM275.358 79.2V85.2H283.611L281.065 77.349L275.358 79.2ZM274.158 75.5L279.865 73.649L278.52 69.5H274.158V75.5ZM252.058 75.5V69.5H247.806L246.397 73.5111L252.058 75.5ZM250.758 79.2L245.097 77.2111L242.29 85.2H250.758V79.2ZM253.458 79.2H259.458V73.2H253.458V79.2ZM253.458 98V104H259.458V98H253.458ZM221.558 98H215.558V104H221.558V98ZM221.558 79.2V73.2H215.558V79.2H221.558ZM226.558 79.2V85.2H230.622L232.13 81.4262L226.558 79.2ZM244.858 33.4L250.43 35.6262L253.716 27.4H244.858V33.4ZM241.258 33.4H235.258V39.4H241.258V33.4ZM241.258 14.6V8.59999H235.258V14.6H241.258ZM257.758 59.5L252.19 57.2644L248.883 65.5H257.758V59.5ZM268.358 59.5V65.5H277.232L273.926 57.2644L268.358 59.5ZM263.058 46.3L268.626 44.0644L263.058 30.197L257.49 44.0644L263.058 46.3ZM279.558 14.6V33.4H291.558V14.6H279.558ZM285.558 27.4H281.358V39.4H285.558V27.4ZM275.786 35.6262L294.086 81.4262L305.23 76.9738L286.93 31.1738L275.786 35.6262ZM299.658 85.2H304.658V73.2H299.658V85.2ZM298.658 79.2V98H310.658V79.2H298.658ZM304.658 92H272.658V104H304.658V92ZM278.658 98V79.2H266.658V98H278.658ZM272.658 85.2H275.358V73.2H272.658V85.2ZM281.065 77.349L279.865 73.649L268.45 77.351L269.65 81.051L281.065 77.349ZM274.158 69.5H252.058V81.5H274.158V69.5ZM246.397 73.5111L245.097 77.2111L256.419 81.1889L257.719 77.4889L246.397 73.5111ZM250.758 85.2H253.458V73.2H250.758V85.2ZM247.458 79.2V98H259.458V79.2H247.458ZM253.458 92H221.558V104H253.458V92ZM227.558 98V79.2H215.558V98H227.558ZM221.558 85.2H226.558V73.2H221.558V85.2ZM232.13 81.4262L250.43 35.6262L239.286 31.1738L220.986 76.9738L232.13 81.4262ZM244.858 27.4H241.258V39.4H244.858V27.4ZM247.258 33.4V14.6H235.258V33.4H247.258ZM241.258 20.6H285.558V8.59999H241.258V20.6ZM257.758 65.5H268.358V53.5H257.758V65.5ZM273.926 57.2644L268.626 44.0644L257.49 48.5356L262.79 61.7356L273.926 57.2644ZM257.49 44.0644L252.19 57.2644L263.326 61.7356L268.626 48.5356L257.49 44.0644ZM353.063 79.2V85.2H359.063V79.2H353.063ZM353.063 65.4H359.063V59.4H353.063V65.4ZM336.763 65.4V59.4H330.763V65.4H336.763ZM336.763 79.2H330.763V85.2H336.763V79.2ZM341.763 79.2H347.763V73.2H341.763V79.2ZM341.763 98V104H347.763V98H341.763ZM308.862 98H302.862V104H308.862V98ZM308.862 79.2V73.2H302.862V79.2H308.862ZM313.863 79.2V85.2H319.863V79.2H313.863ZM313.863 33.4H319.863V27.4H313.863V33.4ZM308.862 33.4H302.862V39.4H308.862V33.4ZM308.862 14.6V8.59999H302.862V14.6H308.862ZM341.763 14.6H347.763V8.59999H341.763V14.6ZM341.763 33.4V39.4H347.763V33.4H341.763ZM336.763 33.4V27.4H330.763V33.4H336.763ZM336.763 44.8H330.763V50.8H336.763V44.8ZM353.063 44.8V50.8H359.063V44.8H353.063ZM353.063 33.4H359.063V27.4H353.063V33.4ZM348.063 33.4H342.063V39.4H348.063V33.4ZM348.063 14.6V8.59999H342.063V14.6H348.063ZM380.963 14.6H386.963V8.59999H380.963V14.6ZM380.963 33.4V39.4H386.963V33.4H380.963ZM375.963 33.4V27.4H369.963V33.4H375.963ZM375.963 79.2H369.963V85.2H375.963V79.2ZM380.963 79.2H386.963V73.2H380.963V79.2ZM380.963 98V104H386.963V98H380.963ZM348.063 98H342.063V104H348.063V98ZM348.063 79.2V73.2H342.063V79.2H348.063ZM359.063 79.2V65.4H347.063V79.2H359.063ZM353.063 59.4H336.763V71.4H353.063V59.4ZM330.763 65.4V79.2H342.763V65.4H330.763ZM336.763 85.2H341.763V73.2H336.763V85.2ZM335.763 79.2V98H347.763V79.2H335.763ZM341.763 92H308.862V104H341.763V92ZM314.862 98V79.2H302.862V98H314.862ZM308.862 85.2H313.863V73.2H308.862V85.2ZM319.863 79.2V33.4H307.863V79.2H319.863ZM313.863 27.4H308.862V39.4H313.863V27.4ZM314.862 33.4V14.6H302.862V33.4H314.862ZM308.862 20.6H341.763V8.59999H308.862V20.6ZM335.763 14.6V33.4H347.763V14.6H335.763ZM341.763 27.4H336.763V39.4H341.763V27.4ZM330.763 33.4V44.8H342.763V33.4H330.763ZM336.763 50.8H353.063V38.8H336.763V50.8ZM359.063 44.8V33.4H347.063V44.8H359.063ZM353.063 27.4H348.063V39.4H353.063V27.4ZM354.063 33.4V14.6H342.063V33.4H354.063ZM348.063 20.6H380.963V8.59999H348.063V20.6ZM374.963 14.6V33.4H386.963V14.6H374.963ZM380.963 27.4H375.963V39.4H380.963V27.4ZM369.963 33.4V79.2H381.963V33.4H369.963ZM375.963 85.2H380.963V73.2H375.963V85.2ZM374.963 79.2V98H386.963V79.2H374.963ZM380.963 92H348.063V104H380.963V92ZM354.063 98V79.2H342.063V98H354.063ZM348.063 85.2H353.063V73.2H348.063V85.2Z" fill="#8D5F3E" mask="url(#path-1-outside-1_1149_42)"/>
<mask id="path-3-outside-2_1149_42" maskUnits="userSpaceOnUse" x="18" y="16" width="65" height="81" fill="black">
<rect fill="white" x="18" y="16" width="65" height="81"/>
<path d="M55.809 64.987H34.554L22.782 53.433V31.96L34.445 20.297H66.382L78.045 31.96V46.348H58.098V39.045L55.7 36.647H45.127L42.729 39.045V46.348L45.127 48.637H66.382L78.045 60.3V81.337L66.382 93H34.445L22.782 81.337V67.385H42.729V74.252L45.127 76.65H55.7L58.098 74.252V67.385L55.809 64.987Z"/>
</mask>
<path d="M55.809 64.987H34.554L22.782 53.433V31.96L34.445 20.297H66.382L78.045 31.96V46.348H58.098V39.045L55.7 36.647H45.127L42.729 39.045V46.348L45.127 48.637H66.382L78.045 60.3V81.337L66.382 93H34.445L22.782 81.337V67.385H42.729V74.252L45.127 76.65H55.7L58.098 74.252V67.385L55.809 64.987Z" fill="#69340F"/>
<path d="M55.809 64.987L58.7024 62.2251L57.5206 60.987H55.809V64.987ZM34.554 64.987L31.7521 67.8417L32.919 68.987H34.554V64.987ZM22.782 53.433H18.782V55.1118L19.9801 56.2877L22.782 53.433ZM22.782 31.96L19.9536 29.1316L18.782 30.3031V31.96H22.782ZM34.445 20.297V16.297H32.7881L31.6166 17.4686L34.445 20.297ZM66.382 20.297L69.2104 17.4686L68.0389 16.297H66.382V20.297ZM78.045 31.96H82.045V30.3031L80.8734 29.1316L78.045 31.96ZM78.045 46.348V50.348H82.045V46.348H78.045ZM58.098 46.348H54.098V50.348H58.098V46.348ZM58.098 39.045H62.098V37.3881L60.9264 36.2166L58.098 39.045ZM55.7 36.647L58.5284 33.8186L57.3569 32.647H55.7V36.647ZM45.127 36.647V32.647H43.4701L42.2986 33.8186L45.127 36.647ZM42.729 39.045L39.9006 36.2166L38.729 37.3881V39.045H42.729ZM42.729 46.348H38.729V48.0596L39.9671 49.2414L42.729 46.348ZM45.127 48.637L42.3651 51.5304L43.5244 52.637H45.127V48.637ZM66.382 48.637L69.2104 45.8086L68.0389 44.637H66.382V48.637ZM78.045 60.3H82.045V58.6431L80.8734 57.4716L78.045 60.3ZM78.045 81.337L80.8734 84.1654L82.045 82.9939V81.337H78.045ZM66.382 93V97H68.0389L69.2104 95.8284L66.382 93ZM34.445 93L31.6166 95.8284L32.7881 97H34.445V93ZM22.782 81.337H18.782V82.9939L19.9536 84.1654L22.782 81.337ZM22.782 67.385V63.385H18.782V67.385H22.782ZM42.729 67.385H46.729V63.385H42.729V67.385ZM42.729 74.252H38.729V75.9089L39.9006 77.0804L42.729 74.252ZM45.127 76.65L42.2986 79.4784L43.4701 80.65H45.127V76.65ZM55.7 76.65V80.65H57.3569L58.5284 79.4784L55.7 76.65ZM58.098 74.252L60.9264 77.0804L62.098 75.9089V74.252H58.098ZM58.098 67.385H62.098V65.7824L60.9914 64.6231L58.098 67.385ZM55.809 60.987H34.554V68.987H55.809V60.987ZM37.3559 62.1323L25.5839 50.5783L19.9801 56.2877L31.7521 67.8417L37.3559 62.1323ZM26.782 53.433V31.96H18.782V53.433H26.782ZM25.6104 34.7884L37.2734 23.1254L31.6166 17.4686L19.9536 29.1316L25.6104 34.7884ZM34.445 24.297H66.382V16.297H34.445V24.297ZM63.5536 23.1254L75.2166 34.7884L80.8734 29.1316L69.2104 17.4686L63.5536 23.1254ZM74.045 31.96V46.348H82.045V31.96H74.045ZM78.045 42.348H58.098V50.348H78.045V42.348ZM62.098 46.348V39.045H54.098V46.348H62.098ZM60.9264 36.2166L58.5284 33.8186L52.8716 39.4754L55.2696 41.8734L60.9264 36.2166ZM55.7 32.647H45.127V40.647H55.7V32.647ZM42.2986 33.8186L39.9006 36.2166L45.5574 41.8734L47.9554 39.4754L42.2986 33.8186ZM38.729 39.045V46.348H46.729V39.045H38.729ZM39.9671 49.2414L42.3651 51.5304L47.8889 45.7436L45.4909 43.4546L39.9671 49.2414ZM45.127 52.637H66.382V44.637H45.127V52.637ZM63.5536 51.4654L75.2166 63.1284L80.8734 57.4716L69.2104 45.8086L63.5536 51.4654ZM74.045 60.3V81.337H82.045V60.3H74.045ZM75.2166 78.5086L63.5536 90.1716L69.2104 95.8284L80.8734 84.1654L75.2166 78.5086ZM66.382 89H34.445V97H66.382V89ZM37.2734 90.1716L25.6104 78.5086L19.9536 84.1654L31.6166 95.8284L37.2734 90.1716ZM26.782 81.337V67.385H18.782V81.337H26.782ZM22.782 71.385H42.729V63.385H22.782V71.385ZM38.729 67.385V74.252H46.729V67.385H38.729ZM39.9006 77.0804L42.2986 79.4784L47.9554 73.8216L45.5574 71.4236L39.9006 77.0804ZM45.127 80.65H55.7V72.65H45.127V80.65ZM58.5284 79.4784L60.9264 77.0804L55.2696 71.4236L52.8716 73.8216L58.5284 79.4784ZM62.098 74.252V67.385H54.098V74.252H62.098ZM60.9914 64.6231L58.7024 62.2251L52.9156 67.7489L55.2046 70.1469L60.9914 64.6231Z" fill="#072532" mask="url(#path-3-outside-2_1149_42)"/>
<mask id="path-5-outside-3_1149_42" maskUnits="userSpaceOnUse" x="87" y="15" width="64" height="83" fill="black">
<rect fill="white" x="87" y="15" width="64" height="83"/>
<path d="M116.484 77.704H129.916V74.668H147.212V95H90.816V77.704H95.416V35.568H90.816V18.272H147.212V38.604H129.916V35.568H116.484V48.08H119.612V45.044H136.816V68.32H119.612V65.284H116.484V77.704Z"/>
</mask>
<path d="M116.484 77.704H129.916V74.668H147.212V95H90.816V77.704H95.416V35.568H90.816V18.272H147.212V38.604H129.916V35.568H116.484V48.08H119.612V45.044H136.816V68.32H119.612V65.284H116.484V77.704Z" fill="#69340F"/>
<path d="M116.484 77.704H113.484V80.704H116.484V77.704ZM129.916 77.704V80.704H132.916V77.704H129.916ZM129.916 74.668V71.668H126.916V74.668H129.916ZM147.212 74.668H150.212V71.668H147.212V74.668ZM147.212 95V98H150.212V95H147.212ZM90.816 95H87.816V98H90.816V95ZM90.816 77.704V74.704H87.816V77.704H90.816ZM95.416 77.704V80.704H98.416V77.704H95.416ZM95.416 35.568H98.416V32.568H95.416V35.568ZM90.816 35.568H87.816V38.568H90.816V35.568ZM90.816 18.272V15.272H87.816V18.272H90.816ZM147.212 18.272H150.212V15.272H147.212V18.272ZM147.212 38.604V41.604H150.212V38.604H147.212ZM129.916 38.604H126.916V41.604H129.916V38.604ZM129.916 35.568H132.916V32.568H129.916V35.568ZM116.484 35.568V32.568H113.484V35.568H116.484ZM116.484 48.08H113.484V51.08H116.484V48.08ZM119.612 48.08V51.08H122.612V48.08H119.612ZM119.612 45.044V42.044H116.612V45.044H119.612ZM136.816 45.044H139.816V42.044H136.816V45.044ZM136.816 68.32V71.32H139.816V68.32H136.816ZM119.612 68.32H116.612V71.32H119.612V68.32ZM119.612 65.284H122.612V62.284H119.612V65.284ZM116.484 65.284V62.284H113.484V65.284H116.484ZM116.484 80.704H129.916V74.704H116.484V80.704ZM132.916 77.704V74.668H126.916V77.704H132.916ZM129.916 77.668H147.212V71.668H129.916V77.668ZM144.212 74.668V95H150.212V74.668H144.212ZM147.212 92H90.816V98H147.212V92ZM93.816 95V77.704H87.816V95H93.816ZM90.816 80.704H95.416V74.704H90.816V80.704ZM98.416 77.704V35.568H92.416V77.704H98.416ZM95.416 32.568H90.816V38.568H95.416V32.568ZM93.816 35.568V18.272H87.816V35.568H93.816ZM90.816 21.272H147.212V15.272H90.816V21.272ZM144.212 18.272V38.604H150.212V18.272H144.212ZM147.212 35.604H129.916V41.604H147.212V35.604ZM132.916 38.604V35.568H126.916V38.604H132.916ZM129.916 32.568H116.484V38.568H129.916V32.568ZM113.484 35.568V48.08H119.484V35.568H113.484ZM116.484 51.08H119.612V45.08H116.484V51.08ZM122.612 48.08V45.044H116.612V48.08H122.612ZM119.612 48.044H136.816V42.044H119.612V48.044ZM133.816 45.044V68.32H139.816V45.044H133.816ZM136.816 65.32H119.612V71.32H136.816V65.32ZM122.612 68.32V65.284H116.612V68.32H122.612ZM119.612 62.284H116.484V68.284H119.612V62.284ZM113.484 65.284V77.704H119.484V65.284H113.484Z" fill="#072532" mask="url(#path-5-outside-3_1149_42)"/>
<mask id="path-7-outside-4_1149_42" maskUnits="userSpaceOnUse" x="155" y="15" width="64" height="83" fill="black">
<rect fill="white" x="155" y="15" width="64" height="83"/>
<path d="M184.484 35.568V77.704H198.284V73.104H215.488V95H158.816V77.704H163.416V35.568H158.816V18.272H189.084V35.568H184.484Z"/>
</mask>
<path d="M184.484 35.568V77.704H198.284V73.104H215.488V95H158.816V77.704H163.416V35.568H158.816V18.272H189.084V35.568H184.484Z" fill="#69340F"/>
<path d="M184.484 35.568V32.568H181.484V35.568H184.484ZM184.484 77.704H181.484V80.704H184.484V77.704ZM198.284 77.704V80.704H201.284V77.704H198.284ZM198.284 73.104V70.104H195.284V73.104H198.284ZM215.488 73.104H218.488V70.104H215.488V73.104ZM215.488 95V98H218.488V95H215.488ZM158.816 95H155.816V98H158.816V95ZM158.816 77.704V74.704H155.816V77.704H158.816ZM163.416 77.704V80.704H166.416V77.704H163.416ZM163.416 35.568H166.416V32.568H163.416V35.568ZM158.816 35.568H155.816V38.568H158.816V35.568ZM158.816 18.272V15.272H155.816V18.272H158.816ZM189.084 18.272H192.084V15.272H189.084V18.272ZM189.084 35.568V38.568H192.084V35.568H189.084ZM181.484 35.568V77.704H187.484V35.568H181.484ZM184.484 80.704H198.284V74.704H184.484V80.704ZM201.284 77.704V73.104H195.284V77.704H201.284ZM198.284 76.104H215.488V70.104H198.284V76.104ZM212.488 73.104V95H218.488V73.104H212.488ZM215.488 92H158.816V98H215.488V92ZM161.816 95V77.704H155.816V95H161.816ZM158.816 80.704H163.416V74.704H158.816V80.704ZM166.416 77.704V35.568H160.416V77.704H166.416ZM163.416 32.568H158.816V38.568H163.416V32.568ZM161.816 35.568V18.272H155.816V35.568H161.816ZM158.816 21.272H189.084V15.272H158.816V21.272ZM186.084 18.272V35.568H192.084V18.272H186.084ZM189.084 32.568H184.484V38.568H189.084V32.568Z" fill="#072532" mask="url(#path-7-outside-4_1149_42)"/>
<mask id="path-9-outside-5_1149_42" maskUnits="userSpaceOnUse" x="223" y="15" width="84" height="83" fill="black">
<rect fill="white" x="223" y="15" width="84" height="83"/>
<path d="M285.696 18.272V35.568H281.832L298.668 77.704H303.268V95H273.828V77.704H276.312L275.208 74.3H254.876L253.68 77.704H256.164V95H226.816V77.704H231.416L248.252 35.568H244.94V18.272H285.696ZM260.12 59.58H269.872L264.996 47.436L260.12 59.58Z"/>
</mask>
<path d="M285.696 18.272V35.568H281.832L298.668 77.704H303.268V95H273.828V77.704H276.312L275.208 74.3H254.876L253.68 77.704H256.164V95H226.816V77.704H231.416L248.252 35.568H244.94V18.272H285.696ZM260.12 59.58H269.872L264.996 47.436L260.12 59.58Z" fill="#69340F"/>
<path d="M285.696 18.272H288.696V15.272H285.696V18.272ZM285.696 35.568V38.568H288.696V35.568H285.696ZM281.832 35.568V32.568H277.403L279.046 36.6811L281.832 35.568ZM298.668 77.704L295.882 78.8171L296.636 80.704H298.668V77.704ZM303.268 77.704H306.268V74.704H303.268V77.704ZM303.268 95V98H306.268V95H303.268ZM273.828 95H270.828V98H273.828V95ZM273.828 77.704V74.704H270.828V77.704H273.828ZM276.312 77.704V80.704H280.439L279.166 76.7785L276.312 77.704ZM275.208 74.3L278.062 73.3745L277.389 71.3H275.208V74.3ZM254.876 74.3V71.3H252.75L252.046 73.3055L254.876 74.3ZM253.68 77.704L250.85 76.7095L249.446 80.704H253.68V77.704ZM256.164 77.704H259.164V74.704H256.164V77.704ZM256.164 95V98H259.164V95H256.164ZM226.816 95H223.816V98H226.816V95ZM226.816 77.704V74.704H223.816V77.704H226.816ZM231.416 77.704V80.704H233.448L234.202 78.8171L231.416 77.704ZM248.252 35.568L251.038 36.6811L252.681 32.568H248.252V35.568ZM244.94 35.568H241.94V38.568H244.94V35.568ZM244.94 18.272V15.272H241.94V18.272H244.94ZM260.12 59.58L257.336 58.4622L255.683 62.58H260.12V59.58ZM269.872 59.58V62.58H274.309L272.656 58.4622L269.872 59.58ZM264.996 47.436L267.78 46.3182L264.996 39.3845L262.212 46.3182L264.996 47.436ZM282.696 18.272V35.568H288.696V18.272H282.696ZM285.696 32.568H281.832V38.568H285.696V32.568ZM279.046 36.6811L295.882 78.8171L301.454 76.5909L284.618 34.4549L279.046 36.6811ZM298.668 80.704H303.268V74.704H298.668V80.704ZM300.268 77.704V95H306.268V77.704H300.268ZM303.268 92H273.828V98H303.268V92ZM276.828 95V77.704H270.828V95H276.828ZM273.828 80.704H276.312V74.704H273.828V80.704ZM279.166 76.7785L278.062 73.3745L272.354 75.2255L273.458 78.6295L279.166 76.7785ZM275.208 71.3H254.876V77.3H275.208V71.3ZM252.046 73.3055L250.85 76.7095L256.51 78.6985L257.706 75.2945L252.046 73.3055ZM253.68 80.704H256.164V74.704H253.68V80.704ZM253.164 77.704V95H259.164V77.704H253.164ZM256.164 92H226.816V98H256.164V92ZM229.816 95V77.704H223.816V95H229.816ZM226.816 80.704H231.416V74.704H226.816V80.704ZM234.202 78.8171L251.038 36.6811L245.466 34.4549L228.63 76.5909L234.202 78.8171ZM248.252 32.568H244.94V38.568H248.252V32.568ZM247.94 35.568V18.272H241.94V35.568H247.94ZM244.94 21.272H285.696V15.272H244.94V21.272ZM260.12 62.58H269.872V56.58H260.12V62.58ZM272.656 58.4622L267.78 46.3182L262.212 48.5538L267.088 60.6978L272.656 58.4622ZM262.212 46.3182L257.336 58.4622L262.904 60.6978L267.78 48.5538L262.212 46.3182Z" fill="#072532" mask="url(#path-9-outside-5_1149_42)"/>
<mask id="path-11-outside-6_1149_42" maskUnits="userSpaceOnUse" x="308" y="15" width="74" height="83" fill="black">
<rect fill="white" x="308" y="15" width="74" height="83"/>
<path d="M352.48 77.704V65.008H337.484V77.704H342.084V95H311.816V77.704H316.416V35.568H311.816V18.272H342.084V35.568H337.484V46.056H352.48V35.568H347.88V18.272H378.148V35.568H373.548V77.704H378.148V95H347.88V77.704H352.48Z"/>
</mask>
<path d="M352.48 77.704V65.008H337.484V77.704H342.084V95H311.816V77.704H316.416V35.568H311.816V18.272H342.084V35.568H337.484V46.056H352.48V35.568H347.88V18.272H378.148V35.568H373.548V77.704H378.148V95H347.88V77.704H352.48Z" fill="#69340F"/>
<path d="M352.48 77.704V80.704H355.48V77.704H352.48ZM352.48 65.008H355.48V62.008H352.48V65.008ZM337.484 65.008V62.008H334.484V65.008H337.484ZM337.484 77.704H334.484V80.704H337.484V77.704ZM342.084 77.704H345.084V74.704H342.084V77.704ZM342.084 95V98H345.084V95H342.084ZM311.816 95H308.816V98H311.816V95ZM311.816 77.704V74.704H308.816V77.704H311.816ZM316.416 77.704V80.704H319.416V77.704H316.416ZM316.416 35.568H319.416V32.568H316.416V35.568ZM311.816 35.568H308.816V38.568H311.816V35.568ZM311.816 18.272V15.272H308.816V18.272H311.816ZM342.084 18.272H345.084V15.272H342.084V18.272ZM342.084 35.568V38.568H345.084V35.568H342.084ZM337.484 35.568V32.568H334.484V35.568H337.484ZM337.484 46.056H334.484V49.056H337.484V46.056ZM352.48 46.056V49.056H355.48V46.056H352.48ZM352.48 35.568H355.48V32.568H352.48V35.568ZM347.88 35.568H344.88V38.568H347.88V35.568ZM347.88 18.272V15.272H344.88V18.272H347.88ZM378.148 18.272H381.148V15.272H378.148V18.272ZM378.148 35.568V38.568H381.148V35.568H378.148ZM373.548 35.568V32.568H370.548V35.568H373.548ZM373.548 77.704H370.548V80.704H373.548V77.704ZM378.148 77.704H381.148V74.704H378.148V77.704ZM378.148 95V98H381.148V95H378.148ZM347.88 95H344.88V98H347.88V95ZM347.88 77.704V74.704H344.88V77.704H347.88ZM355.48 77.704V65.008H349.48V77.704H355.48ZM352.48 62.008H337.484V68.008H352.48V62.008ZM334.484 65.008V77.704H340.484V65.008H334.484ZM337.484 80.704H342.084V74.704H337.484V80.704ZM339.084 77.704V95H345.084V77.704H339.084ZM342.084 92H311.816V98H342.084V92ZM314.816 95V77.704H308.816V95H314.816ZM311.816 80.704H316.416V74.704H311.816V80.704ZM319.416 77.704V35.568H313.416V77.704H319.416ZM316.416 32.568H311.816V38.568H316.416V32.568ZM314.816 35.568V18.272H308.816V35.568H314.816ZM311.816 21.272H342.084V15.272H311.816V21.272ZM339.084 18.272V35.568H345.084V18.272H339.084ZM342.084 32.568H337.484V38.568H342.084V32.568ZM334.484 35.568V46.056H340.484V35.568H334.484ZM337.484 49.056H352.48V43.056H337.484V49.056ZM355.48 46.056V35.568H349.48V46.056H355.48ZM352.48 32.568H347.88V38.568H352.48V32.568ZM350.88 35.568V18.272H344.88V35.568H350.88ZM347.88 21.272H378.148V15.272H347.88V21.272ZM375.148 18.272V35.568H381.148V18.272H375.148ZM378.148 32.568H373.548V38.568H378.148V32.568ZM370.548 35.568V77.704H376.548V35.568H370.548ZM373.548 80.704H378.148V74.704H373.548V80.704ZM375.148 77.704V95H381.148V77.704H375.148ZM378.148 92H347.88V98H378.148V92ZM350.88 95V77.704H344.88V95H350.88ZM347.88 80.704H352.48V74.704H347.88V80.704Z" fill="#072532" mask="url(#path-11-outside-6_1149_42)"/>
<path d="M56.851 124.526C56.851 125.306 56.5953 125.934 56.084 126.411C55.5727 126.888 54.8057 127.126 53.783 127.126H51.95V131H51.04V121.913H53.783C54.797 121.913 55.5597 122.151 56.071 122.628C56.591 123.105 56.851 123.737 56.851 124.526ZM53.783 126.346C55.2043 126.346 55.915 125.739 55.915 124.526C55.915 123.919 55.746 123.46 55.408 123.148C55.07 122.836 54.5283 122.68 53.783 122.68H51.95V126.346H53.783ZM57.9619 127.438C57.9619 126.71 58.1049 126.073 58.3909 125.527C58.6856 124.972 59.0886 124.548 59.5999 124.253C60.1199 123.95 60.7049 123.798 61.3549 123.798C62.0309 123.798 62.6116 123.954 63.0969 124.266C63.5909 124.578 63.9462 124.977 64.1629 125.462V123.902H65.0729V131H64.1629V129.427C63.9376 129.912 63.5779 130.315 63.0839 130.636C62.5986 130.948 62.0179 131.104 61.3419 131.104C60.7006 131.104 60.1199 130.952 59.5999 130.649C59.0886 130.346 58.6856 129.917 58.3909 129.362C58.1049 128.807 57.9619 128.166 57.9619 127.438ZM64.1629 127.451C64.1629 126.879 64.0459 126.376 63.8119 125.943C63.5779 125.51 63.2572 125.176 62.8499 124.942C62.4512 124.708 62.0092 124.591 61.5239 124.591C61.0212 124.591 60.5706 124.704 60.1719 124.929C59.7732 125.154 59.4569 125.484 59.2229 125.917C58.9976 126.342 58.8849 126.849 58.8849 127.438C58.8849 128.019 58.9976 128.53 59.2229 128.972C59.4569 129.405 59.7732 129.739 60.1719 129.973C60.5706 130.198 61.0212 130.311 61.5239 130.311C62.0092 130.311 62.4512 130.194 62.8499 129.96C63.2572 129.726 63.5779 129.392 63.8119 128.959C64.0459 128.526 64.1629 128.023 64.1629 127.451ZM73.2994 123.902V131H72.3894V129.752C72.1814 130.194 71.8607 130.532 71.4274 130.766C70.994 131 70.5087 131.117 69.9714 131.117C69.122 131.117 68.4287 130.857 67.8914 130.337C67.354 129.808 67.0854 129.046 67.0854 128.049V123.902H67.9824V127.945C67.9824 128.716 68.173 129.306 68.5544 129.713C68.9444 130.12 69.473 130.324 70.1404 130.324C70.825 130.324 71.371 130.107 71.7784 129.674C72.1857 129.241 72.3894 128.604 72.3894 127.763V123.902H73.2994ZM77.8209 131.104C77.0062 131.104 76.3389 130.918 75.8189 130.545C75.3076 130.164 75.0216 129.648 74.9609 128.998H75.8969C75.9402 129.397 76.1266 129.722 76.4559 129.973C76.7939 130.216 77.2446 130.337 77.8079 130.337C78.3019 130.337 78.6876 130.22 78.9649 129.986C79.2509 129.752 79.3939 129.462 79.3939 129.115C79.3939 128.872 79.3159 128.673 79.1599 128.517C79.0039 128.361 78.8046 128.24 78.5619 128.153C78.3279 128.058 78.0072 127.958 77.5999 127.854C77.0712 127.715 76.6422 127.577 76.3129 127.438C75.9836 127.299 75.7019 127.096 75.4679 126.827C75.2426 126.55 75.1299 126.181 75.1299 125.722C75.1299 125.375 75.2339 125.055 75.4419 124.76C75.6499 124.465 75.9446 124.231 76.3259 124.058C76.7072 123.885 77.1406 123.798 77.6259 123.798C78.3886 123.798 79.0039 123.993 79.4719 124.383C79.9399 124.764 80.1912 125.293 80.2259 125.969H79.3159C79.2899 125.553 79.1252 125.219 78.8219 124.968C78.5272 124.708 78.1199 124.578 77.5999 124.578C77.1406 124.578 76.7679 124.686 76.4819 124.903C76.1959 125.12 76.0529 125.388 76.0529 125.709C76.0529 125.986 76.1352 126.216 76.2999 126.398C76.4732 126.571 76.6856 126.71 76.9369 126.814C77.1882 126.909 77.5262 127.018 77.9509 127.139C78.4622 127.278 78.8696 127.412 79.1729 127.542C79.4762 127.672 79.7362 127.863 79.9529 128.114C80.1696 128.365 80.2822 128.699 80.2909 129.115C80.2909 129.496 80.1869 129.839 79.9789 130.142C79.7709 130.437 79.4806 130.671 79.1079 130.844C78.7352 131.017 78.3062 131.104 77.8209 131.104ZM82.4589 122.563C82.2769 122.563 82.1209 122.498 81.9909 122.368C81.8609 122.238 81.7959 122.078 81.7959 121.887C81.7959 121.696 81.8609 121.54 81.9909 121.419C82.1209 121.289 82.2769 121.224 82.4589 121.224C82.6409 121.224 82.7969 121.289 82.9269 121.419C83.0569 121.54 83.1219 121.696 83.1219 121.887C83.1219 122.078 83.0569 122.238 82.9269 122.368C82.7969 122.498 82.6409 122.563 82.4589 122.563ZM82.9139 123.902V131H82.0039V123.902H82.9139ZM88.3026 123.772C89.1519 123.772 89.8452 124.036 90.3826 124.565C90.9199 125.085 91.1886 125.843 91.1886 126.84V131H90.2916V126.944C90.2916 126.173 90.0966 125.583 89.7066 125.176C89.3252 124.769 88.8009 124.565 88.1336 124.565C87.4489 124.565 86.9029 124.782 86.4956 125.215C86.0882 125.648 85.8846 126.285 85.8846 127.126V131H84.9746V123.902H85.8846V125.111C86.1099 124.678 86.4349 124.348 86.8596 124.123C87.2842 123.889 87.7652 123.772 88.3026 123.772ZM96.1781 123.798C96.8455 123.798 97.4261 123.954 97.9201 124.266C98.4141 124.578 98.7695 124.972 98.9861 125.449V123.902H99.8961V131.182C99.8961 131.832 99.7531 132.408 99.4671 132.911C99.1898 133.414 98.7998 133.799 98.2971 134.068C97.7945 134.345 97.2225 134.484 96.5811 134.484C95.6711 134.484 94.9128 134.267 94.3061 133.834C93.7081 133.401 93.3355 132.811 93.1881 132.066H94.0851C94.2411 132.56 94.5358 132.954 94.9691 133.249C95.4111 133.544 95.9485 133.691 96.5811 133.691C97.0405 133.691 97.4521 133.591 97.8161 133.392C98.1801 133.201 98.4661 132.915 98.6741 132.534C98.8821 132.153 98.9861 131.702 98.9861 131.182V129.427C98.7608 129.912 98.4011 130.315 97.9071 130.636C97.4218 130.948 96.8455 131.104 96.1781 131.104C95.5281 131.104 94.9431 130.952 94.4231 130.649C93.9118 130.346 93.5088 129.917 93.2141 129.362C92.9281 128.807 92.7851 128.166 92.7851 127.438C92.7851 126.71 92.9281 126.073 93.2141 125.527C93.5088 124.972 93.9118 124.548 94.4231 124.253C94.9431 123.95 95.5281 123.798 96.1781 123.798ZM98.9861 127.451C98.9861 126.879 98.8691 126.376 98.6351 125.943C98.4011 125.51 98.0805 125.176 97.6731 124.942C97.2745 124.708 96.8325 124.591 96.3471 124.591C95.8445 124.591 95.3938 124.704 94.9951 124.929C94.5965 125.154 94.2801 125.484 94.0461 125.917C93.8208 126.342 93.7081 126.849 93.7081 127.438C93.7081 128.019 93.8208 128.53 94.0461 128.972C94.2801 129.405 94.5965 129.739 94.9951 129.973C95.3938 130.198 95.8445 130.311 96.3471 130.311C96.8325 130.311 97.2745 130.194 97.6731 129.96C98.0805 129.726 98.4011 129.392 98.6351 128.959C98.8691 128.526 98.9861 128.023 98.9861 127.451ZM108.336 124.669H106.685V131H105.775V124.669H104.787V123.902H105.775V123.408C105.775 122.637 105.97 122.069 106.36 121.705C106.759 121.341 107.4 121.159 108.284 121.159V121.939C107.695 121.939 107.279 122.052 107.036 122.277C106.802 122.502 106.685 122.879 106.685 123.408V123.902H108.336V124.669ZM112.876 131.104C112.208 131.104 111.606 130.957 111.069 130.662C110.54 130.359 110.12 129.934 109.808 129.388C109.504 128.833 109.353 128.188 109.353 127.451C109.353 126.714 109.509 126.073 109.821 125.527C110.133 124.972 110.557 124.548 111.095 124.253C111.632 123.95 112.234 123.798 112.902 123.798C113.569 123.798 114.171 123.95 114.709 124.253C115.255 124.548 115.679 124.972 115.983 125.527C116.295 126.073 116.451 126.714 116.451 127.451C116.451 128.179 116.295 128.82 115.983 129.375C115.671 129.93 115.242 130.359 114.696 130.662C114.15 130.957 113.543 131.104 112.876 131.104ZM112.876 130.311C113.344 130.311 113.777 130.207 114.176 129.999C114.574 129.782 114.895 129.462 115.138 129.037C115.389 128.604 115.515 128.075 115.515 127.451C115.515 126.827 115.393 126.303 115.151 125.878C114.908 125.445 114.587 125.124 114.189 124.916C113.79 124.699 113.357 124.591 112.889 124.591C112.421 124.591 111.987 124.699 111.589 124.916C111.19 125.124 110.869 125.445 110.627 125.878C110.393 126.303 110.276 126.827 110.276 127.451C110.276 128.075 110.393 128.604 110.627 129.037C110.869 129.462 111.186 129.782 111.576 129.999C111.974 130.207 112.408 130.311 112.876 130.311ZM119.019 125.163C119.219 124.721 119.522 124.379 119.929 124.136C120.345 123.893 120.852 123.772 121.45 123.772V124.721H121.203C120.545 124.721 120.016 124.899 119.617 125.254C119.219 125.609 119.019 126.203 119.019 127.035V131H118.109V123.902H119.019V125.163ZM230.14 129.492L228.788 132.898H228.164L229.126 129.492H230.14ZM236.032 122.654V126.047H239.477V126.801H236.032V130.246H239.867V131H235.122V121.9H239.867V122.654H236.032ZM250.11 123.772C250.942 123.772 251.618 124.036 252.138 124.565C252.667 125.085 252.931 125.843 252.931 126.84V131H252.034V126.944C252.034 126.173 251.848 125.583 251.475 125.176C251.102 124.769 250.595 124.565 249.954 124.565C249.287 124.565 248.754 124.786 248.355 125.228C247.956 125.67 247.757 126.311 247.757 127.152V131H246.86V126.944C246.86 126.173 246.674 125.583 246.301 125.176C245.928 124.769 245.417 124.565 244.767 124.565C244.1 124.565 243.567 124.786 243.168 125.228C242.769 125.67 242.57 126.311 242.57 127.152V131H241.66V123.902H242.57V125.124C242.795 124.682 243.116 124.348 243.532 124.123C243.948 123.889 244.412 123.772 244.923 123.772C245.538 123.772 246.076 123.919 246.535 124.214C247.003 124.509 247.341 124.942 247.549 125.514C247.74 124.951 248.065 124.522 248.524 124.227C248.992 123.924 249.521 123.772 250.11 123.772ZM255.849 125.475C256.083 124.981 256.443 124.578 256.928 124.266C257.422 123.954 258.003 123.798 258.67 123.798C259.32 123.798 259.901 123.95 260.412 124.253C260.923 124.548 261.322 124.972 261.608 125.527C261.903 126.073 262.05 126.71 262.05 127.438C262.05 128.166 261.903 128.807 261.608 129.362C261.322 129.917 260.919 130.346 260.399 130.649C259.888 130.952 259.311 131.104 258.67 131.104C257.994 131.104 257.409 130.952 256.915 130.649C256.43 130.337 256.074 129.934 255.849 129.44V131H254.952V121.38H255.849V125.475ZM261.127 127.438C261.127 126.849 261.01 126.342 260.776 125.917C260.551 125.484 260.239 125.154 259.84 124.929C259.441 124.704 258.991 124.591 258.488 124.591C258.003 124.591 257.556 124.708 257.149 124.942C256.75 125.176 256.434 125.51 256.2 125.943C255.966 126.376 255.849 126.879 255.849 127.451C255.849 128.023 255.966 128.526 256.2 128.959C256.434 129.392 256.75 129.726 257.149 129.96C257.556 130.194 258.003 130.311 258.488 130.311C258.991 130.311 259.441 130.198 259.84 129.973C260.239 129.739 260.551 129.405 260.776 128.972C261.01 128.53 261.127 128.019 261.127 127.438ZM264.635 125.163C264.834 124.721 265.137 124.379 265.545 124.136C265.961 123.893 266.468 123.772 267.066 123.772V124.721H266.819C266.16 124.721 265.631 124.899 265.233 125.254C264.834 125.609 264.635 126.203 264.635 127.035V131H263.725V123.902H264.635V125.163ZM268.019 127.438C268.019 126.71 268.162 126.073 268.448 125.527C268.742 124.972 269.145 124.548 269.657 124.253C270.177 123.95 270.762 123.798 271.412 123.798C272.088 123.798 272.668 123.954 273.154 124.266C273.648 124.578 274.003 124.977 274.22 125.462V123.902H275.13V131H274.22V129.427C273.994 129.912 273.635 130.315 273.141 130.636C272.655 130.948 272.075 131.104 271.399 131.104C270.757 131.104 270.177 130.952 269.657 130.649C269.145 130.346 268.742 129.917 268.448 129.362C268.162 128.807 268.019 128.166 268.019 127.438ZM274.22 127.451C274.22 126.879 274.103 126.376 273.869 125.943C273.635 125.51 273.314 125.176 272.907 124.942C272.508 124.708 272.066 124.591 271.581 124.591C271.078 124.591 270.627 124.704 270.229 124.929C269.83 125.154 269.514 125.484 269.28 125.917C269.054 126.342 268.942 126.849 268.942 127.438C268.942 128.019 269.054 128.53 269.28 128.972C269.514 129.405 269.83 129.739 270.229 129.973C270.627 130.198 271.078 130.311 271.581 130.311C272.066 130.311 272.508 130.194 272.907 129.96C273.314 129.726 273.635 129.392 273.869 128.959C274.103 128.526 274.22 128.023 274.22 127.451ZM276.791 127.451C276.791 126.714 276.938 126.073 277.233 125.527C277.528 124.972 277.935 124.548 278.455 124.253C278.975 123.95 279.569 123.798 280.236 123.798C281.111 123.798 281.831 124.015 282.394 124.448C282.966 124.881 283.334 125.471 283.499 126.216H282.524C282.403 125.705 282.138 125.306 281.731 125.02C281.332 124.725 280.834 124.578 280.236 124.578C279.759 124.578 279.33 124.686 278.949 124.903C278.568 125.12 278.264 125.445 278.039 125.878C277.822 126.303 277.714 126.827 277.714 127.451C277.714 128.075 277.822 128.604 278.039 129.037C278.264 129.47 278.568 129.795 278.949 130.012C279.33 130.229 279.759 130.337 280.236 130.337C280.834 130.337 281.332 130.194 281.731 129.908C282.138 129.613 282.403 129.206 282.524 128.686H283.499C283.334 129.414 282.966 129.999 282.394 130.441C281.822 130.883 281.103 131.104 280.236 131.104C279.569 131.104 278.975 130.957 278.455 130.662C277.935 130.359 277.528 129.934 277.233 129.388C276.938 128.833 276.791 128.188 276.791 127.451ZM285.635 122.563C285.453 122.563 285.297 122.498 285.167 122.368C285.037 122.238 284.972 122.078 284.972 121.887C284.972 121.696 285.037 121.54 285.167 121.419C285.297 121.289 285.453 121.224 285.635 121.224C285.817 121.224 285.973 121.289 286.103 121.419C286.233 121.54 286.298 121.696 286.298 121.887C286.298 122.078 286.233 122.238 286.103 122.368C285.973 122.498 285.817 122.563 285.635 122.563ZM286.09 123.902V131H285.18V123.902H286.09ZM291.478 123.772C292.328 123.772 293.021 124.036 293.558 124.565C294.096 125.085 294.364 125.843 294.364 126.84V131H293.467V126.944C293.467 126.173 293.272 125.583 292.882 125.176C292.501 124.769 291.977 124.565 291.309 124.565C290.625 124.565 290.079 124.782 289.671 125.215C289.264 125.648 289.06 126.285 289.06 127.126V131H288.15V123.902H289.06V125.111C289.286 124.678 289.611 124.348 290.035 124.123C290.46 123.889 290.941 123.772 291.478 123.772ZM299.354 123.798C300.021 123.798 300.602 123.954 301.096 124.266C301.59 124.578 301.945 124.972 302.162 125.449V123.902H303.072V131.182C303.072 131.832 302.929 132.408 302.643 132.911C302.366 133.414 301.976 133.799 301.473 134.068C300.97 134.345 300.398 134.484 299.757 134.484C298.847 134.484 298.089 134.267 297.482 133.834C296.884 133.401 296.511 132.811 296.364 132.066H297.261C297.417 132.56 297.712 132.954 298.145 133.249C298.587 133.544 299.124 133.691 299.757 133.691C300.216 133.691 300.628 133.591 300.992 133.392C301.356 133.201 301.642 132.915 301.85 132.534C302.058 132.153 302.162 131.702 302.162 131.182V129.427C301.937 129.912 301.577 130.315 301.083 130.636C300.598 130.948 300.021 131.104 299.354 131.104C298.704 131.104 298.119 130.952 297.599 130.649C297.088 130.346 296.685 129.917 296.39 129.362C296.104 128.807 295.961 128.166 295.961 127.438C295.961 126.71 296.104 126.073 296.39 125.527C296.685 124.972 297.088 124.548 297.599 124.253C298.119 123.95 298.704 123.798 299.354 123.798ZM302.162 127.451C302.162 126.879 302.045 126.376 301.811 125.943C301.577 125.51 301.256 125.176 300.849 124.942C300.45 124.708 300.008 124.591 299.523 124.591C299.02 124.591 298.57 124.704 298.171 124.929C297.772 125.154 297.456 125.484 297.222 125.917C296.997 126.342 296.884 126.849 296.884 127.438C296.884 128.019 296.997 128.53 297.222 128.972C297.456 129.405 297.772 129.739 298.171 129.973C298.57 130.198 299.02 130.311 299.523 130.311C300.008 130.311 300.45 130.194 300.849 129.96C301.256 129.726 301.577 129.392 301.811 128.959C302.045 128.526 302.162 128.023 302.162 127.451Z" fill="#69340F"/>
<path d="M128.22 129.05H129.741V128.699H131.691V131H125.321V129.05H125.841V124.279H125.321V122.329H131.691V124.63H129.741V124.279H128.22V125.696H128.571V125.345H130.521V127.997H128.571V127.646H128.22V129.05ZM137.656 131L135.316 127.126V129.05H135.836V131H132.417V129.05H132.937V124.279H132.417V122.329H135.238L137.617 126.294V124.279H137.097V122.329H140.516V124.279H139.996V129.05H140.516V131H137.656ZM148.56 124.812H146.61V124.292L146.077 124.279V129.037H146.61V130.987H143.191V129.037H143.711V124.292H143.191V124.812H141.241V122.329H148.56V124.812ZM151.985 129.05H153.506V128.699H155.456V131H149.086V129.05H149.606V124.279H149.086V122.329H155.456V124.63H153.506V124.279H151.985V125.696H152.336V125.345H154.286V127.997H152.336V127.646H151.985V129.05ZM159.082 129.05H159.602V131H156.183V129.05H156.703V124.279H156.183V122.329H161.552L162.93 123.72V125.943L162.358 126.515L162.93 127.074V129.05H163.45V131H160.551V127.776L160.278 127.49H159.082V129.05ZM159.082 125.54H160.278L160.551 125.254V124.565L160.278 124.279H159.082V125.54ZM171.487 124.812H169.537V124.292L169.004 124.279V129.037H169.537V130.987H166.118V129.037H166.638V124.292H166.118V124.812H164.168V122.329H171.487V124.812ZM178.67 122.329V124.279H178.228L180.139 129.05H180.659V131H177.318V129.05H177.617L177.487 128.647H175.186L175.043 129.05H175.329V131H172.014V129.05H172.534L174.445 124.279H174.068V122.329H178.67ZM175.771 126.983H176.889L176.33 125.631L175.771 126.983ZM184.612 131H181.193V129.05H181.713V124.279H181.193V122.329H184.612V124.279H184.092V129.05H184.612V131ZM190.583 131L188.243 127.126V129.05H188.763V131H185.344V129.05H185.864V124.279H185.344V122.329H188.165L190.544 126.294V124.279H190.024V122.329H193.443V124.279H192.923V129.05H193.443V131H190.583ZM198.951 129.934L197.066 126.801V129.05H197.586V131H194.167V129.05H194.687V124.279H194.167V122.329H196.949L198.951 125.696L200.966 122.329H203.761V124.279H203.228V129.05H203.761V131H200.329V129.05H200.849V126.801L198.951 129.934ZM207.375 129.05H208.896V128.699H210.846V131H204.476V129.05H204.996V124.279H204.476V122.329H210.846V124.63H208.896V124.279H207.375V125.696H207.726V125.345H209.676V127.997H207.726V127.646H207.375V129.05ZM216.812 131L214.472 127.126V129.05H214.992V131H211.573V129.05H212.093V124.279H211.573V122.329H214.394L216.773 126.294V124.279H216.253V122.329H219.672V124.279H219.152V129.05H219.672V131H216.812ZM227.715 124.812H225.765V124.292L225.232 124.279V129.037H225.765V130.987H222.346V129.037H222.866V124.292H222.346V124.812H220.396V122.329H227.715V124.812ZM311.72 126.801H311.278V128.556H312.526V131H307.651V128.556H308.301V122.602H307.651V120.158H315.62V123.031H313.176V122.602H311.278V124.37H311.72V123.941H314.151V127.23H311.72V126.801ZM322.813 122.329V124.279H322.371L324.282 129.05H324.802V131H321.461V129.05H321.76L321.63 128.647H319.329L319.186 129.05H319.472V131H316.157V129.05H316.677L318.588 124.279H318.211V122.329H322.813ZM319.914 126.983H321.032L320.473 125.631L319.914 126.983ZM328.754 131H325.335V129.05H325.855V124.279H325.335V122.329H328.754V124.279H328.234V129.05H328.754V131ZM336.806 124.812H334.856V124.292L334.323 124.279V129.037H334.856V130.987H331.437V129.037H331.957V124.292H331.437V124.812H329.487V122.329H336.806V124.812ZM341.934 129.05V127.607H340.231V129.05H340.751V131H337.332V129.05H337.852V124.279H337.332V122.329H340.751V124.279H340.231V125.475H341.934V124.279H341.401V122.329H344.833V124.279H344.313V129.05H344.833V131H341.401V129.05H341.934ZM348.315 131H345.559V128.231H348.315V131Z" fill="#8D5F3E"/>
<path d="M126 126L226 127" stroke="#072532" stroke-linecap="round"/>
<path d="M141.699 117.473C141.178 117.173 140.768 116.874 140.469 116.574C140.182 116.262 139.909 115.962 139.648 115.676C139.388 115.376 139.089 115.096 138.75 114.836C138.411 114.562 137.943 114.322 137.344 114.113C137.253 114.374 137.181 114.68 137.129 115.031C137.077 115.383 137.031 115.741 136.992 116.105C136.966 116.457 136.94 116.796 136.914 117.121C136.901 117.434 136.882 117.674 136.855 117.844C136.686 118.052 136.523 118.143 136.367 118.117C136.211 118.091 136.068 118.013 135.938 117.883C135.82 117.74 135.716 117.577 135.625 117.395C135.547 117.199 135.501 117.049 135.488 116.945C135.788 116.242 135.99 115.533 136.094 114.816C136.211 114.1 136.263 113.365 136.25 112.609C136.25 111.854 136.211 111.073 136.133 110.266C136.055 109.458 135.99 108.612 135.938 107.727C136.003 107.622 136.087 107.538 136.191 107.473C136.309 107.408 136.432 107.401 136.562 107.453C136.732 107.258 136.953 107.043 137.227 106.809C137.5 106.561 137.793 106.34 138.105 106.145C138.431 105.936 138.763 105.767 139.102 105.637C139.453 105.507 139.779 105.454 140.078 105.48C140.378 105.493 140.638 105.604 140.859 105.812C141.094 106.021 141.263 106.359 141.367 106.828C141.471 107.505 141.452 108.137 141.309 108.723C141.165 109.309 140.931 109.868 140.605 110.402C140.293 110.923 139.896 111.418 139.414 111.887C138.932 112.342 138.398 112.785 137.812 113.215C137.773 113.293 137.786 113.371 137.852 113.449C137.93 113.514 138.021 113.579 138.125 113.645C138.242 113.697 138.359 113.742 138.477 113.781C138.594 113.82 138.678 113.846 138.73 113.859C138.991 114.042 139.277 114.289 139.59 114.602C139.902 114.901 140.228 115.214 140.566 115.539C140.918 115.852 141.27 116.138 141.621 116.398C141.986 116.659 142.344 116.828 142.695 116.906C143.047 116.971 143.385 116.919 143.711 116.75C144.049 116.581 144.368 116.223 144.668 115.676H144.98C145.033 116.066 144.967 116.431 144.785 116.77C144.616 117.095 144.368 117.349 144.043 117.531C143.73 117.714 143.366 117.811 142.949 117.824C142.533 117.837 142.116 117.72 141.699 117.473ZM137.188 111.047C137.201 111.099 137.214 111.197 137.227 111.34C137.24 111.47 137.253 111.613 137.266 111.77C137.292 111.913 137.311 112.049 137.324 112.18C137.337 112.31 137.344 112.401 137.344 112.453C137.904 112.232 138.392 111.887 138.809 111.418C139.225 110.949 139.564 110.448 139.824 109.914C140.085 109.367 140.254 108.827 140.332 108.293C140.423 107.746 140.423 107.297 140.332 106.945C140.241 106.594 140.046 106.379 139.746 106.301C139.46 106.21 139.069 106.34 138.574 106.691C138.105 107.03 137.76 107.362 137.539 107.688C137.331 108 137.188 108.332 137.109 108.684C137.044 109.022 137.031 109.387 137.07 109.777C137.109 110.155 137.148 110.578 137.188 111.047ZM148.184 117.844C147.689 117.635 147.311 117.368 147.051 117.043C146.803 116.717 146.621 116.359 146.504 115.969C146.387 115.578 146.315 115.161 146.289 114.719C146.263 114.276 146.23 113.827 146.191 113.371C145.892 113.423 145.599 113.449 145.312 113.449C145.026 113.436 144.772 113.41 144.551 113.371C144.342 113.319 144.193 113.254 144.102 113.176C144.01 113.085 143.997 112.993 144.062 112.902C144.141 112.798 144.323 112.694 144.609 112.59C144.896 112.486 145.319 112.388 145.879 112.297C145.957 112.297 146.068 112.258 146.211 112.18C146.367 112.102 146.458 112.043 146.484 112.004C146.576 111.874 146.66 111.652 146.738 111.34C146.816 111.014 146.895 110.656 146.973 110.266C147.064 109.875 147.168 109.484 147.285 109.094C147.415 108.69 147.572 108.345 147.754 108.059C147.949 107.772 148.177 107.57 148.438 107.453C148.711 107.336 149.043 107.362 149.434 107.531C149.473 107.557 149.525 107.609 149.59 107.688C149.668 107.753 149.746 107.824 149.824 107.902C149.902 107.98 149.974 108.059 150.039 108.137C150.117 108.202 150.169 108.254 150.195 108.293C150.247 108.931 150.208 109.471 150.078 109.914C149.948 110.357 149.772 110.734 149.551 111.047C149.329 111.346 149.082 111.6 148.809 111.809C148.535 112.017 148.275 112.219 148.027 112.414C147.78 112.596 147.565 112.785 147.383 112.98C147.214 113.176 147.122 113.417 147.109 113.703C147.083 114.042 147.07 114.354 147.07 114.641C147.07 114.914 147.103 115.174 147.168 115.422C147.233 115.669 147.344 115.904 147.5 116.125C147.656 116.346 147.884 116.561 148.184 116.77C148.405 116.926 148.678 116.965 149.004 116.887C149.329 116.809 149.661 116.672 150 116.477C150.339 116.281 150.671 116.06 150.996 115.812C151.322 115.565 151.602 115.357 151.836 115.188C152.07 115.005 152.24 114.888 152.344 114.836C152.448 114.784 152.448 114.862 152.344 115.07C152.161 115.5 151.947 115.93 151.699 116.359C151.452 116.789 151.159 117.154 150.82 117.453C150.482 117.753 150.091 117.948 149.648 118.039C149.219 118.143 148.73 118.078 148.184 117.844ZM147.559 110.754C147.546 110.819 147.52 110.949 147.48 111.145C147.441 111.34 147.422 111.47 147.422 111.535C147.435 111.548 147.454 111.555 147.48 111.555C147.52 111.555 147.546 111.548 147.559 111.535C147.598 111.509 147.656 111.47 147.734 111.418C147.812 111.353 147.891 111.294 147.969 111.242C148.047 111.177 148.118 111.118 148.184 111.066C148.262 111.001 148.314 110.956 148.34 110.93C148.73 110.539 149.004 110.181 149.16 109.855C149.329 109.517 149.414 109.243 149.414 109.035C149.414 108.827 149.342 108.69 149.199 108.625C149.069 108.547 148.906 108.566 148.711 108.684C148.529 108.801 148.333 109.029 148.125 109.367C147.917 109.693 147.728 110.155 147.559 110.754ZM155.742 112.453C155.443 112.414 155.104 112.434 154.727 112.512C154.349 112.577 154.017 112.661 153.73 112.766C153.6 112.818 153.47 112.785 153.34 112.668C153.223 112.551 153.138 112.414 153.086 112.258C153.034 112.089 153.027 111.932 153.066 111.789C153.105 111.646 153.223 111.561 153.418 111.535C153.47 111.535 153.613 111.542 153.848 111.555C154.082 111.568 154.329 111.574 154.59 111.574C154.863 111.561 155.111 111.535 155.332 111.496C155.566 111.444 155.703 111.359 155.742 111.242C155.729 110.695 155.71 110.109 155.684 109.484C155.658 108.859 155.645 108.228 155.645 107.59C155.645 106.939 155.671 106.301 155.723 105.676C155.788 105.038 155.892 104.426 156.035 103.84C156.126 103.501 156.257 103.267 156.426 103.137C156.608 103.007 156.895 102.987 157.285 103.078C157.598 103.143 157.923 103.306 158.262 103.566C158.6 103.814 158.913 104.107 159.199 104.445C159.499 104.784 159.753 105.148 159.961 105.539C160.182 105.917 160.312 106.275 160.352 106.613C160.365 106.743 160.306 106.861 160.176 106.965C160.059 107.069 159.922 107.115 159.766 107.102C159.609 107.089 159.46 106.991 159.316 106.809C159.186 106.613 159.121 106.288 159.121 105.832C159.121 105.806 159.102 105.76 159.062 105.695C159.023 105.617 158.991 105.565 158.965 105.539L157.578 104.152C157.318 104.048 157.116 104.068 156.973 104.211C156.842 104.341 156.745 104.517 156.68 104.738C156.615 104.96 156.569 105.194 156.543 105.441C156.53 105.689 156.517 105.878 156.504 106.008C156.465 106.503 156.426 106.952 156.387 107.355C156.361 107.759 156.341 108.156 156.328 108.547C156.328 108.938 156.341 109.335 156.367 109.738C156.393 110.142 156.439 110.591 156.504 111.086C156.556 111.099 156.738 111.047 157.051 110.93C157.376 110.799 157.754 110.663 158.184 110.52C158.626 110.363 159.082 110.22 159.551 110.09C160.02 109.96 160.423 109.888 160.762 109.875C161.113 109.862 161.361 109.934 161.504 110.09C161.66 110.233 161.634 110.513 161.426 110.93C161.348 111.073 161.23 111.145 161.074 111.145C160.918 111.132 160.781 111.112 160.664 111.086C160.573 111.112 160.417 111.164 160.195 111.242C159.974 111.307 159.74 111.385 159.492 111.477C159.258 111.555 159.03 111.633 158.809 111.711C158.587 111.776 158.438 111.822 158.359 111.848C158.32 111.861 158.236 111.88 158.105 111.906C157.988 111.932 157.858 111.965 157.715 112.004C157.585 112.043 157.454 112.076 157.324 112.102C157.207 112.128 157.135 112.147 157.109 112.16C157.07 112.173 157.025 112.186 156.973 112.199C156.934 112.199 156.888 112.212 156.836 112.238C156.784 112.264 156.725 112.284 156.66 112.297V117.844C156.66 117.948 156.608 118.013 156.504 118.039C156.413 118.065 156.309 118.059 156.191 118.02C156.087 117.993 155.983 117.941 155.879 117.863C155.788 117.772 155.742 117.661 155.742 117.531V112.453ZM163.105 117.707C163.053 117.499 163.014 117.212 162.988 116.848C162.962 116.483 162.949 116.079 162.949 115.637C162.949 115.181 162.949 114.706 162.949 114.211C162.962 113.716 162.975 113.234 162.988 112.766C163.001 112.297 163.001 111.861 162.988 111.457C162.988 111.053 162.975 110.721 162.949 110.461C162.936 110.266 162.917 109.979 162.891 109.602C162.878 109.211 162.858 108.775 162.832 108.293C162.806 107.811 162.773 107.303 162.734 106.77C162.708 106.236 162.689 105.728 162.676 105.246C162.663 104.751 162.656 104.302 162.656 103.898C162.656 103.482 162.669 103.163 162.695 102.941C162.891 102.772 163.047 102.818 163.164 103.078C163.294 103.326 163.392 103.69 163.457 104.172C163.522 104.641 163.561 105.174 163.574 105.773C163.6 106.372 163.613 106.939 163.613 107.473C163.613 108.007 163.607 108.456 163.594 108.82C163.581 109.185 163.574 109.374 163.574 109.387C163.639 110.611 163.678 111.822 163.691 113.02C163.717 114.204 163.783 115.402 163.887 116.613C164.017 116.861 164.082 117.128 164.082 117.414C164.095 117.688 164.056 117.909 163.965 118.078C163.887 118.247 163.77 118.319 163.613 118.293C163.457 118.267 163.288 118.072 163.105 117.707ZM168.945 117.844C168.451 117.635 168.073 117.368 167.812 117.043C167.565 116.717 167.383 116.359 167.266 115.969C167.148 115.578 167.077 115.161 167.051 114.719C167.025 114.276 166.992 113.827 166.953 113.371C166.654 113.423 166.361 113.449 166.074 113.449C165.788 113.436 165.534 113.41 165.312 113.371C165.104 113.319 164.954 113.254 164.863 113.176C164.772 113.085 164.759 112.993 164.824 112.902C164.902 112.798 165.085 112.694 165.371 112.59C165.658 112.486 166.081 112.388 166.641 112.297C166.719 112.297 166.829 112.258 166.973 112.18C167.129 112.102 167.22 112.043 167.246 112.004C167.337 111.874 167.422 111.652 167.5 111.34C167.578 111.014 167.656 110.656 167.734 110.266C167.826 109.875 167.93 109.484 168.047 109.094C168.177 108.69 168.333 108.345 168.516 108.059C168.711 107.772 168.939 107.57 169.199 107.453C169.473 107.336 169.805 107.362 170.195 107.531C170.234 107.557 170.286 107.609 170.352 107.688C170.43 107.753 170.508 107.824 170.586 107.902C170.664 107.98 170.736 108.059 170.801 108.137C170.879 108.202 170.931 108.254 170.957 108.293C171.009 108.931 170.97 109.471 170.84 109.914C170.71 110.357 170.534 110.734 170.312 111.047C170.091 111.346 169.844 111.6 169.57 111.809C169.297 112.017 169.036 112.219 168.789 112.414C168.542 112.596 168.327 112.785 168.145 112.98C167.975 113.176 167.884 113.417 167.871 113.703C167.845 114.042 167.832 114.354 167.832 114.641C167.832 114.914 167.865 115.174 167.93 115.422C167.995 115.669 168.105 115.904 168.262 116.125C168.418 116.346 168.646 116.561 168.945 116.77C169.167 116.926 169.44 116.965 169.766 116.887C170.091 116.809 170.423 116.672 170.762 116.477C171.1 116.281 171.432 116.06 171.758 115.812C172.083 115.565 172.363 115.357 172.598 115.188C172.832 115.005 173.001 114.888 173.105 114.836C173.21 114.784 173.21 114.862 173.105 115.07C172.923 115.5 172.708 115.93 172.461 116.359C172.214 116.789 171.921 117.154 171.582 117.453C171.243 117.753 170.853 117.948 170.41 118.039C169.98 118.143 169.492 118.078 168.945 117.844ZM168.32 110.754C168.307 110.819 168.281 110.949 168.242 111.145C168.203 111.34 168.184 111.47 168.184 111.535C168.197 111.548 168.216 111.555 168.242 111.555C168.281 111.555 168.307 111.548 168.32 111.535C168.359 111.509 168.418 111.47 168.496 111.418C168.574 111.353 168.652 111.294 168.73 111.242C168.809 111.177 168.88 111.118 168.945 111.066C169.023 111.001 169.076 110.956 169.102 110.93C169.492 110.539 169.766 110.181 169.922 109.855C170.091 109.517 170.176 109.243 170.176 109.035C170.176 108.827 170.104 108.69 169.961 108.625C169.831 108.547 169.668 108.566 169.473 108.684C169.29 108.801 169.095 109.029 168.887 109.367C168.678 109.693 168.49 110.155 168.32 110.754ZM176.035 117.707C175.697 117.447 175.378 117.049 175.078 116.516C174.792 115.982 174.551 115.389 174.355 114.738C174.16 114.074 174.023 113.384 173.945 112.668C173.867 111.952 173.861 111.281 173.926 110.656C173.991 110.018 174.141 109.465 174.375 108.996C174.622 108.514 174.967 108.182 175.41 108C175.775 107.857 176.087 107.889 176.348 108.098C176.621 108.293 176.842 108.56 177.012 108.898C177.181 109.224 177.292 109.562 177.344 109.914C177.409 110.266 177.409 110.526 177.344 110.695C177.279 110.852 177.148 110.865 176.953 110.734C176.771 110.591 176.517 110.194 176.191 109.543C176.048 109.243 175.892 109.146 175.723 109.25C175.566 109.341 175.417 109.569 175.273 109.934C175.143 110.298 175.033 110.76 174.941 111.32C174.863 111.867 174.818 112.44 174.805 113.039C174.805 113.638 174.85 114.224 174.941 114.797C175.046 115.357 175.215 115.839 175.449 116.242C175.684 116.633 175.996 116.906 176.387 117.062C176.79 117.206 177.285 117.16 177.871 116.926C177.988 116.874 178.177 116.711 178.438 116.438C178.698 116.164 178.978 115.858 179.277 115.52C179.59 115.181 179.896 114.855 180.195 114.543C180.495 114.23 180.742 114.016 180.938 113.898C181.146 113.781 181.276 113.801 181.328 113.957C181.38 114.1 181.309 114.471 181.113 115.07C180.97 115.526 180.71 115.988 180.332 116.457C179.967 116.913 179.544 117.297 179.062 117.609C178.594 117.909 178.092 118.085 177.559 118.137C177.025 118.202 176.517 118.059 176.035 117.707ZM184.492 117.844C184.492 117.596 184.499 117.264 184.512 116.848C184.538 116.431 184.557 115.975 184.57 115.48C184.583 114.986 184.59 114.478 184.59 113.957C184.59 113.436 184.577 112.948 184.551 112.492C184.525 112.036 184.479 111.639 184.414 111.301C184.362 110.962 184.284 110.734 184.18 110.617C183.359 110.682 182.734 110.676 182.305 110.598C181.875 110.52 181.654 110.415 181.641 110.285C181.641 110.155 181.862 110.018 182.305 109.875C182.747 109.719 183.431 109.608 184.355 109.543C184.355 109.387 184.355 109.113 184.355 108.723C184.368 108.319 184.375 107.896 184.375 107.453C184.375 107.01 184.368 106.594 184.355 106.203C184.355 105.812 184.355 105.539 184.355 105.383C184.342 105.292 184.323 105.168 184.297 105.012C184.271 104.855 184.245 104.693 184.219 104.523C184.193 104.341 184.173 104.165 184.16 103.996C184.147 103.814 184.154 103.664 184.18 103.547C184.206 103.391 184.271 103.286 184.375 103.234C184.492 103.169 184.609 103.143 184.727 103.156C184.844 103.156 184.948 103.195 185.039 103.273C185.143 103.339 185.195 103.43 185.195 103.547V109.387C185.195 109.517 185.358 109.582 185.684 109.582C186.009 109.569 186.406 109.536 186.875 109.484C187.344 109.432 187.832 109.38 188.34 109.328C188.861 109.263 189.303 109.243 189.668 109.27C190.046 109.296 190.299 109.387 190.43 109.543C190.56 109.686 190.482 109.94 190.195 110.305C190.169 110.331 190.117 110.363 190.039 110.402C189.961 110.441 189.909 110.461 189.883 110.461C189.18 110.435 188.438 110.428 187.656 110.441C186.875 110.454 186.133 110.513 185.43 110.617C185.195 110.656 185.065 110.878 185.039 111.281C185.026 111.672 185.059 112.154 185.137 112.727C185.228 113.299 185.326 113.911 185.43 114.562C185.547 115.201 185.618 115.786 185.645 116.32C185.671 116.854 185.612 117.29 185.469 117.629C185.339 117.954 185.065 118.078 184.648 118C184.622 118 184.59 117.98 184.551 117.941C184.512 117.902 184.492 117.87 184.492 117.844ZM191.133 117.531C191.107 117.453 191.087 117.193 191.074 116.75C191.061 116.294 191.048 115.747 191.035 115.109C191.035 114.471 191.042 113.781 191.055 113.039C191.068 112.284 191.081 111.581 191.094 110.93C191.12 110.266 191.146 109.693 191.172 109.211C191.211 108.729 191.25 108.423 191.289 108.293C191.367 108.254 191.452 108.254 191.543 108.293C191.634 108.332 191.712 108.384 191.777 108.449C191.855 108.514 191.921 108.592 191.973 108.684C192.025 108.775 192.051 108.853 192.051 108.918V117.531C192.051 117.674 192.012 117.785 191.934 117.863C191.855 117.928 191.758 117.961 191.641 117.961C191.536 117.961 191.432 117.928 191.328 117.863C191.237 117.785 191.172 117.674 191.133 117.531ZM191.289 105.246C191.276 105.207 191.263 105.155 191.25 105.09C191.25 105.012 191.25 104.934 191.25 104.855C191.25 104.764 191.25 104.686 191.25 104.621C191.263 104.543 191.276 104.491 191.289 104.465C191.393 104.413 191.51 104.367 191.641 104.328C191.771 104.289 191.908 104.283 192.051 104.309C192.272 104.595 192.409 104.829 192.461 105.012C192.526 105.181 192.533 105.318 192.48 105.422C192.428 105.513 192.337 105.572 192.207 105.598C192.09 105.611 191.966 105.604 191.836 105.578C191.706 105.552 191.582 105.513 191.465 105.461C191.361 105.396 191.302 105.324 191.289 105.246ZM194.375 117.844C193.997 117.557 193.717 117.245 193.535 116.906C193.353 116.555 193.229 116.19 193.164 115.812C193.112 115.422 193.112 115.025 193.164 114.621C193.229 114.204 193.32 113.788 193.438 113.371C193.516 113.111 193.587 112.798 193.652 112.434C193.73 112.069 193.822 111.704 193.926 111.34C194.03 110.962 194.154 110.617 194.297 110.305C194.44 109.979 194.616 109.725 194.824 109.543C194.954 109.426 195.124 109.341 195.332 109.289C195.54 109.224 195.755 109.191 195.977 109.191C196.198 109.178 196.413 109.178 196.621 109.191C196.829 109.204 196.999 109.217 197.129 109.23C197.702 109.27 198.145 109.465 198.457 109.816C198.77 110.155 198.978 110.578 199.082 111.086C199.186 111.594 199.199 112.16 199.121 112.785C199.056 113.41 198.913 114.029 198.691 114.641C198.483 115.24 198.216 115.806 197.891 116.34C197.565 116.874 197.207 117.31 196.816 117.648C196.439 117.974 196.035 118.169 195.605 118.234C195.189 118.299 194.779 118.169 194.375 117.844ZM194.668 116.77C194.993 117.03 195.345 117.089 195.723 116.945C196.1 116.802 196.458 116.535 196.797 116.145C197.148 115.754 197.461 115.285 197.734 114.738C198.008 114.178 198.203 113.625 198.32 113.078C198.438 112.518 198.457 112.004 198.379 111.535C198.301 111.053 198.092 110.695 197.754 110.461C197.272 110.135 196.816 110.038 196.387 110.168C195.957 110.285 195.579 110.539 195.254 110.93C194.928 111.307 194.655 111.783 194.434 112.355C194.225 112.928 194.089 113.501 194.023 114.074C193.958 114.647 193.971 115.181 194.062 115.676C194.167 116.171 194.368 116.535 194.668 116.77ZM200.059 117.844C200.033 117.818 200 117.766 199.961 117.688C199.922 117.609 199.896 117.557 199.883 117.531C199.922 117.362 199.961 116.984 200 116.398C200.052 115.799 200.104 115.109 200.156 114.328C200.221 113.547 200.293 112.733 200.371 111.887C200.462 111.04 200.56 110.285 200.664 109.621C200.768 108.957 200.892 108.449 201.035 108.098C201.178 107.733 201.341 107.642 201.523 107.824C201.914 108.111 202.279 108.475 202.617 108.918C202.956 109.348 203.281 109.816 203.594 110.324C203.906 110.832 204.206 111.359 204.492 111.906C204.792 112.44 205.098 112.954 205.41 113.449C205.736 113.931 206.074 114.374 206.426 114.777C206.79 115.168 207.181 115.474 207.598 115.695H207.734C207.76 115.383 207.786 114.999 207.812 114.543C207.852 114.074 207.891 113.566 207.93 113.02C207.969 112.473 208.008 111.913 208.047 111.34C208.086 110.754 208.132 110.188 208.184 109.641C208.249 109.081 208.314 108.566 208.379 108.098C208.444 107.629 208.516 107.232 208.594 106.906C208.607 106.88 208.633 106.828 208.672 106.75C208.724 106.659 208.776 106.574 208.828 106.496C208.893 106.405 208.958 106.333 209.023 106.281C209.089 106.229 209.154 106.229 209.219 106.281L210.137 107.219C210.176 107.258 210.15 107.342 210.059 107.473C209.98 107.59 209.883 107.727 209.766 107.883C209.648 108.026 209.531 108.169 209.414 108.312C209.297 108.443 209.232 108.54 209.219 108.605C209.128 108.944 209.049 109.354 208.984 109.836C208.919 110.305 208.867 110.812 208.828 111.359C208.789 111.893 208.757 112.447 208.73 113.02C208.704 113.592 208.678 114.152 208.652 114.699C208.639 115.233 208.626 115.741 208.613 116.223C208.613 116.704 208.607 117.121 208.594 117.473C208.125 117.46 207.676 117.316 207.246 117.043C206.816 116.77 206.4 116.411 205.996 115.969C205.605 115.513 205.221 115.005 204.844 114.445C204.479 113.872 204.121 113.299 203.77 112.727C203.431 112.141 203.099 111.568 202.773 111.008C202.448 110.448 202.135 109.953 201.836 109.523H201.66C201.608 109.523 201.562 109.667 201.523 109.953C201.497 110.227 201.471 110.585 201.445 111.027C201.419 111.47 201.393 111.978 201.367 112.551C201.341 113.111 201.302 113.677 201.25 114.25C201.211 114.81 201.159 115.35 201.094 115.871C201.029 116.379 200.951 116.809 200.859 117.16C200.768 117.512 200.658 117.759 200.527 117.902C200.397 118.046 200.241 118.026 200.059 117.844Z" fill="#072532"/>
</g>
<defs>
<clipPath id="clip0_1149_42">
<rect width="438" height="161" fill="white"/>
</clipPath>
</defs>
</svg>
